<svg xmlns="http://www.w3.org/2000/svg" width="47.21" height="25.385" fill="none"><g clip-path="url(#a)" style="stroke-width:2.17032" transform="matrix(.43167 0 0 .43167 -17.333 -11.44)"><path fill="#e7d7c1" d="M40.153 81.478c-.028-17.726 8.91-35.261 23.704-45.174 16.28-11.482 39.038-13.132 56.524-3.403 17.57 9.322 29.333 28.634 29.136 48.577-.374 1.04.818 4.06-.725 3.621-5.078-1.201-10.154-2.41-15.231-3.614-.181-17.097-13.099-33.188-29.954-36.536-14.436-3.44-30.431 3.164-38.389 15.654-4.062 6.132-6.325 13.508-6.053 20.882-.778-.914-2.731-2.487-2.806-3.007l12.666 3.007c-.664-12.741 9.157-24.906 21.745-26.989 12.544-2.673 25.928 4.958 30.666 16.74 1.892 4.178 2.332 8.782 2.379 13.314h-19.427c.71-4.183.37-9.002-3.249-11.825-5.273-4.815-14.36-2.829-17.572 3.408-1.37 1.673-1.928 7.945-1.574 2.785.797-7.774 9.014-13.41 16.572-11.688 6.736 1.172 11.92 7.511 12.227 14.262-.773-.955-2.74-2.406-2.8-3.064h12.66c-.915.544-3.027 3.875-3.024 2.285.431-12.842-11.44-24.059-24.123-23.696-12.953-.001-24.296 11.614-24.487 24.475-5.35 1.272-10.701 2.537-16.05 3.815-.186-8.58 1.62-17.303 6.245-24.626 7.939-13.383 23.969-21.33 39.433-19.387 17.11 1.785 31.758 16.015 34.43 32.944 1.311 2.22-1.372 8.68 2.66 6.738l10.734-2.548c-.932.542-3.02 3.915-3.054 2.26-.017-18.993-12.49-36.966-29.947-44.208-16.122-7.18-35.99-4.09-49.396 7.305-11.018 9.174-17.976 23.284-17.824 37.693h-6.096z" style="stroke-width:4.63207"/></g><defs><clipPath id="a"><path fill="#fff" d="M37.5 26.5h113v92h-113z"/></clipPath></defs></svg>