<svg width="114" height="93" fill="none" xmlns="http://www.w3.org/2000/svg">
  <path d="M3.15 55.48c.6-48.9 58.5-73.35 93.28-38.81a55.18 55.18 0 0 1 16.09 38.8v3.8l-3.05-.72-12.9-3.06a38.77 38.77 0 0 0-11.94-26.95C74 18.17 57.2 15.04 43.78 21.31 30.65 27.1 21.65 41.08 22.16 55.5l-3.04-3.07 12.9 3.07a26.2 26.2 0 0 1 1.64-10.07c6.86-18.22 29.98-23.19 44.02-9.88a28.76 28.76 0 0 1 9.03 19.95l.1 3.06H67.4l.3-3.06c.76-9.85-11.05-15.1-18.42-8.62a12.6 12.6 0 0 0-4.34 8.62c-.27-3.4.9-7 3.26-9.7 4.98-5.98 14.54-6.44 20.37-1.09 3 2.62 5 6.57 5.23 10.8l-3.05-3.07h12.91l-3.05 3.06c.77-16.7-16.6-28.96-32.19-22.9-9.37 3.42-16.11 12.84-16.4 22.9l-12.9 3.07-3.14.75.1-3.82a41.82 41.82 0 0 1 12.82-29.1c11.45-11.24 29.64-14.66 44.18-7.9 14.25 6.25 24.01 21.38 23.5 37l12.9-3.06-3.05 3.06c.03-34.42-35.48-58.56-67.14-45.1C21.53 17.66 9.06 36.14 9.25 55.48h-6.1Z" fill="#E7D7C1"/>
</svg>
