<svg width="160" height="130" fill="none" xmlns="http://www.w3.org/2000/svg"><g clip-path="url(#a)" style="fill:#bf4342;fill-opacity:1;stroke-width:.728786" transform="matrix(1.37214 0 0 1.37214 -48.921 -34.728)" fill="#E7D7C1"><path d="M41.889 93.686h4.56l4.318 24.533h-4.253l-.623-4.132h-3.493l-.66 4.132H37.5Zm3.492 16.752-1.176-9.281-1.248 9.281h2.417zM51.735 112.587v-13.24c0-3.476 2.317-5.906 5.666-5.906s5.665 2.43 5.665 5.906v1.529h-4.288V99.21c0-1.456-.796-1.63-1.384-1.63-.624 0-1.42.173-1.42 1.63v13.521c0 1.493.76 1.63 1.42 1.63.66 0 1.384-.137 1.384-1.63v-1.774h4.288v1.63c0 3.476-2.352 5.906-5.665 5.906s-5.666-2.43-5.666-5.906zM67.046 97.855h-2.904v-4.169h10.09v4.168h-2.905v20.365H67.04V97.855ZM81.39 93.686h4.252v24.533h-4.253zM88.54 93.686h4.044l3.076 12.194V93.686h4.289v24.533h-4.045l-3.076-11.812v11.812h-4.289zM108.167 93.686h4.253l3.141 14.661 3.177-14.66h4.253v24.532h-4.253v-11.675l-1.829 8.235h-2.696l-1.8-8.163v11.603h-4.253V93.686ZM128.835 93.686h4.561l4.318 24.533h-4.253l-.624-4.132h-3.492l-.66 4.132h-4.253l4.389-24.533zm3.493 16.752-1.176-9.281-1.248 9.281h2.417zM139.169 93.686h5.665c3.349 0 5.666 2.293 5.666 6.433v11.747c0 4.132-2.317 6.36-5.666 6.36h-5.665V93.694Zm5.149 20.43c.861 0 1.972-.246 1.972-2.294v-11.674c0-2.048-1.04-2.33-1.972-2.33h-.868v16.298zM40.153 81.478c.588-48.899 58.498-73.345 93.279-38.81 10.162 10.138 16.143 24.395 16.085 38.81v3.793l-3.047-.721-12.909-3.065c-.229-10.139-4.647-20.018-11.933-26.94-10.614-10.378-27.417-13.514-40.849-7.234-13.13 5.784-22.13 19.766-21.614 34.174l-3.048-3.065 12.908 3.065a26.199 26.199 0 0 1 1.635-10.067c6.864-18.215 29.984-23.184 44.019-9.879 5.457 5.084 8.799 12.41 9.028 19.946l.108 3.065h-19.427l.308-3.065c.753-9.843-11.058-15.093-18.43-8.617-2.439 2.07-4.095 5.214-4.34 8.617-.264-3.396.904-6.987 3.264-9.699 4.977-5.978 14.543-6.44 20.374-1.082 2.99 2.618 4.991 6.57 5.228 10.788l-3.048-3.064h12.908l-3.047 3.064c.767-16.694-16.609-28.967-32.193-22.902-9.373 3.418-16.114 12.836-16.394 22.902L56.11 84.557l-3.141.75.093-3.815c.222-10.939 4.977-21.626 12.83-29.104 11.452-11.242 29.639-14.653 44.183-7.896 14.249 6.245 24.01 21.381 23.486 37l12.909-3.064-3.048 3.064c.028-34.426-35.477-58.562-67.14-45.098-17.755 7.269-30.22 25.744-30.033 45.084Z" style="fill:#bf4342;fill-opacity:1;stroke-width:.728786"/></g><defs><clipPath id="a"><path fill="#fff" transform="translate(37.5 26.5)" d="M0 0h113v92H0z"/></clipPath></defs></svg>