<svg width="114" height="93" fill="none" xmlns="http://www.w3.org/2000/svg"><path d="M4.89 67.69h4.56l4.32 24.53H9.5l-.62-4.13H5.4l-.65 4.13H.5l4.39-24.53Zm3.5 16.75L7.2 75.16l-1.25 9.28h2.42ZM14.74 86.59V73.35c0-3.48 2.31-5.9 5.66-5.9s5.67 2.42 5.67 5.9v1.53h-4.3V73.2c0-1.46-.79-1.63-1.38-1.63-.62 0-1.42.17-1.42 1.63v13.52c0 1.5.76 1.63 1.42 1.63.66 0 1.39-.14 1.39-1.63v-1.77h4.29v1.63c0 3.47-2.36 5.9-5.67 5.9s-5.66-2.43-5.66-5.9ZM30.05 71.85h-2.9V67.7h10.08v4.16h-2.9v20.37h-4.3V71.85h.02ZM44.39 67.69h4.25v24.53H44.4V67.69ZM51.54 67.69h4.04l3.08 12.2v-12.2h4.29v24.53H58.9L55.83 80.4v11.8h-4.3V67.7ZM71.17 67.69h4.25l3.14 14.66 3.18-14.66h4.25v24.53h-4.25V80.54l-1.83 8.24h-2.7l-1.8-8.16v11.6h-4.25V67.69ZM91.84 67.69h4.56l4.31 24.53h-4.25l-.62-4.13h-3.5l-.66 4.13h-4.25l4.4-24.53Zm3.49 16.75-1.18-9.28-1.25 9.28h2.42ZM102.17 67.69h5.66c3.35 0 5.67 2.29 5.67 6.43v11.75c0 4.13-2.32 6.36-5.67 6.36h-5.66V67.69Zm5.15 20.43c.86 0 1.97-.25 1.97-2.3V74.15c0-2.05-1.04-2.33-1.97-2.33h-.87v16.3h.87ZM3.15 55.48c.6-48.9 58.5-73.35 93.28-38.81a55.18 55.18 0 0 1 16.09 38.8v3.8l-3.05-.72-12.9-3.06a38.77 38.77 0 0 0-11.94-26.95C74 18.17 57.2 15.04 43.78 21.31 30.65 27.1 21.65 41.08 22.16 55.5l-3.04-3.07 12.9 3.07a26.2 26.2 0 0 1 1.64-10.07c6.86-18.22 29.98-23.19 44.02-9.88a28.76 28.76 0 0 1 9.03 19.95l.1 3.06H67.4l.3-3.06c.76-9.85-11.05-15.1-18.42-8.62a12.6 12.6 0 0 0-4.34 8.62c-.27-3.4.9-7 3.26-9.7 4.98-5.98 14.54-6.44 20.37-1.09 3 2.62 5 6.57 5.23 10.8l-3.05-3.07h12.91l-3.05 3.06c.77-16.7-16.6-28.96-32.19-22.9-9.37 3.42-16.11 12.84-16.4 22.9l-12.9 3.07-3.14.75.1-3.82a41.82 41.82 0 0 1 12.82-29.1c11.45-11.24 29.64-14.66 44.18-7.9 14.25 6.25 24.01 21.38 23.5 37l12.9-3.06-3.05 3.06c.03-34.42-35.48-58.56-67.14-45.1C21.53 17.66 9.06 36.14 9.25 55.48h-6.1Z" fill="#E7D7C1"/></svg>