<svg width="188" height="159" viewBox="0 0 188 159" fill="none" xmlns="http://www.w3.org/2000/svg">
<rect width="188" height="159" fill="#8C1C13"/>
<g clip-path="url(#clip0_1628_2)">
<path d="M41.8889 93.6864H46.4499L50.7671 118.219H46.5145L45.8906 114.087H42.3981L41.7383 118.219H37.5L41.8889 93.6864ZM45.3814 110.438L44.2053 101.157L42.9574 110.438H45.3742H45.3814Z" fill="#E7D7C1"/>
<path d="M51.7354 112.587V99.3472C51.7354 95.8714 54.0517 93.4412 57.4008 93.4412C60.7498 93.4412 63.0662 95.8714 63.0662 99.3472V100.876H58.7777V99.2102C58.7777 97.7535 57.9817 97.5804 57.3936 97.5804C56.7697 97.5804 55.9737 97.7535 55.9737 99.2102V112.731C55.9737 114.224 56.7338 114.361 57.3936 114.361C58.0534 114.361 58.7777 114.224 58.7777 112.731V110.957H63.0662V112.587C63.0662 116.063 60.714 118.493 57.4008 118.493C54.0876 118.493 51.7354 116.063 51.7354 112.587Z" fill="#E7D7C1"/>
<path d="M67.046 97.8545H64.1416V93.6864H74.2318V97.8545H71.3274V118.219H67.0389V97.8545H67.046Z" fill="#E7D7C1"/>
<path d="M81.3892 93.6864H85.6418V118.219H81.3892V93.6864Z" fill="#E7D7C1"/>
<path d="M88.5391 93.6864H92.5837L95.6603 105.88V93.6864H99.9488V118.219H95.9041L92.8276 106.407V118.219H88.5391V93.6864Z" fill="#E7D7C1"/>
<path d="M108.167 93.6864H112.42L115.561 108.347L118.738 93.6864H122.991V118.219H118.738V106.544L116.909 114.779H114.213L112.413 106.616V118.219H108.16V93.6864H108.167Z" fill="#E7D7C1"/>
<path d="M128.835 93.6864H133.396L137.714 118.219H133.461L132.837 114.087H129.345L128.685 118.219H124.432L128.821 93.6864H128.835ZM132.328 110.438L131.152 101.157L129.904 110.438H132.321H132.328Z" fill="#E7D7C1"/>
<path d="M139.169 93.6864H144.834C148.183 93.6864 150.5 95.9795 150.5 100.119V111.866C150.5 115.998 148.183 118.226 144.834 118.226H139.169V93.6936V93.6864ZM144.318 114.116C145.179 114.116 146.29 113.87 146.29 111.822V100.148C146.29 98.0996 145.25 97.8184 144.318 97.8184H143.45V114.116H144.318Z" fill="#E7D7C1"/>
<path d="M40.1533 81.4779C40.7414 32.579 98.6506 8.1332 133.432 42.6675C143.594 52.8063 149.575 67.0628 149.517 81.4779V85.271L146.47 84.5499L133.561 81.4851C133.332 71.3462 128.914 61.4669 121.628 54.5442C111.014 44.1674 94.2114 41.0305 80.7794 47.3114C67.6485 53.0948 58.6484 67.0772 59.1647 81.4851L56.1169 78.4204L69.0254 81.4851C68.9035 78.0887 69.4557 74.649 70.6605 71.4184C77.5236 53.203 100.644 48.2345 114.679 61.5391C120.136 66.6229 123.478 73.9495 123.707 81.4851L123.815 84.5499C119.469 84.5499 108.734 84.5499 104.388 84.5499L104.696 81.4851C105.449 71.6419 93.6377 66.3922 86.2655 72.8678C83.8272 74.9374 82.1706 78.0815 81.9268 81.4851C81.6615 78.0887 82.8304 74.4975 85.1898 71.7861C90.1668 65.8081 99.7334 65.3466 105.564 70.7044C108.554 73.3221 110.555 77.2738 110.792 81.4923L107.744 78.4276H120.652L117.605 81.4923C118.372 64.7985 100.996 52.5251 85.4121 58.5897C76.0391 62.0078 69.298 71.4256 69.0183 81.4923L56.1097 84.5571L52.9686 85.3071L53.0619 81.4923C53.2842 70.553 58.0388 59.8661 65.8915 52.3881C77.3443 41.1459 95.531 37.735 110.075 44.4919C124.324 50.7367 134.085 65.873 133.561 81.4923L146.47 78.4276L143.422 81.4923C143.45 47.0663 107.945 22.9305 76.2829 36.3937C58.5265 43.6626 46.0626 62.1376 46.249 81.4779H40.1533Z" fill="#E7D7C1"/>
</g>
<defs>
<clipPath id="clip0_1628_2">
<rect width="113" height="92" fill="white" transform="translate(37.5 26.5)"/>
</clipPath>
</defs>
</svg>
