<?xml version="1.0" encoding="UTF-8" standalone="no"?>
<svg
   width="113"
   height="91.992752"
   viewBox="0 0 113 91.992752"
   fill="none"
   version="1.1"
   id="svg29"
   sodipodi:docname="actInMadBeigeFullLogo.svg"
   inkscape:version="1.2.2 (b0a8486541, 2022-12-01)"
   xmlns:inkscape="http://www.inkscape.org/namespaces/inkscape"
   xmlns:sodipodi="http://sodipodi.sourceforge.net/DTD/sodipodi-0.dtd"
   xmlns="http://www.w3.org/2000/svg"
   xmlns:svg="http://www.w3.org/2000/svg">
  <sodipodi:namedview
     id="namedview31"
     pagecolor="#ffffff"
     bordercolor="#000000"
     borderopacity="0.25"
     inkscape:showpageshadow="2"
     inkscape:pageopacity="0.0"
     inkscape:pagecheckerboard="0"
     inkscape:deskcolor="#d1d1d1"
     showgrid="false"
     inkscape:zoom="2.9685535"
     inkscape:cx="83.037076"
     inkscape:cy="43.623941"
     inkscape:window-width="2021"
     inkscape:window-height="1071"
     inkscape:window-x="0"
     inkscape:window-y="0"
     inkscape:window-maximized="1"
     inkscape:current-layer="svg29" />
  <g
     clip-path="url(#clip0_1628_2)"
     id="g22"
     transform="translate(-37.5,-26.500248)">
    <path
       d="m 41.8889,93.6864 h 4.561 l 4.3172,24.5326 h -4.2526 l -0.6239,-4.132 h -3.4925 l -0.6598,4.132 H 37.5 Z m 3.4925,16.7516 -1.1761,-9.281 -1.2479,9.281 h 2.4168 z"
       fill="#e7d7c1"
       id="path4" />
    <path
       d="M 51.7354,112.587 V 99.3472 c 0,-3.4758 2.3163,-5.906 5.6654,-5.906 3.349,0 5.6654,2.4302 5.6654,5.906 v 1.5288 h -4.2885 v -1.6658 c 0,-1.4567 -0.796,-1.6298 -1.3841,-1.6298 -0.6239,0 -1.4199,0.1731 -1.4199,1.6298 v 13.5208 c 0,1.493 0.7601,1.63 1.4199,1.63 0.6598,0 1.3841,-0.137 1.3841,-1.63 v -1.774 h 4.2885 v 1.63 c 0,3.476 -2.3522,5.906 -5.6654,5.906 -3.3132,0 -5.6654,-2.43 -5.6654,-5.906 z"
       fill="#e7d7c1"
       id="path6" />
    <path
       d="m 67.046,97.8545 h -2.9044 v -4.1681 h 10.0902 v 4.1681 H 71.3274 V 118.219 H 67.0389 V 97.8545 Z"
       fill="#e7d7c1"
       id="path8" />
    <path
       d="m 81.3892,93.6864 h 4.2526 v 24.5326 h -4.2526 z"
       fill="#e7d7c1"
       id="path10" />
    <path
       d="m 88.5391,93.6864 h 4.0446 L 95.6603,105.88 V 93.6864 h 4.2885 v 24.5326 h -4.0447 l -3.0765,-11.812 v 11.812 h -4.2885 z"
       fill="#e7d7c1"
       id="path12" />
    <path
       d="m 108.167,93.6864 h 4.253 l 3.141,14.6606 3.177,-14.6606 h 4.253 v 24.5326 h -4.253 v -11.675 l -1.829,8.235 h -2.696 l -1.8,-8.163 v 11.603 H 108.16 V 93.6864 Z"
       fill="#e7d7c1"
       id="path14" />
    <path
       d="m 128.835,93.6864 h 4.561 l 4.318,24.5326 h -4.253 l -0.624,-4.132 h -3.492 l -0.66,4.132 h -4.253 l 4.389,-24.5326 z m 3.493,16.7516 -1.176,-9.281 -1.248,9.281 h 2.417 z"
       fill="#e7d7c1"
       id="path16" />
    <path
       d="m 139.169,93.6864 h 5.665 c 3.349,0 5.666,2.2931 5.666,6.4326 v 11.747 c 0,4.132 -2.317,6.36 -5.666,6.36 h -5.665 V 93.6936 Z m 5.149,20.4296 c 0.861,0 1.972,-0.246 1.972,-2.294 v -11.674 c 0,-2.0484 -1.04,-2.3296 -1.972,-2.3296 h -0.868 v 16.2976 z"
       fill="#e7d7c1"
       id="path18" />
    <path
       d="M 40.1533,81.4779 C 40.7414,32.579 98.6506,8.1332 133.432,42.6675 c 10.162,10.1388 16.143,24.3953 16.085,38.8104 V 85.271 L 146.47,84.5499 133.561,81.4851 C 133.332,71.3462 128.914,61.4669 121.628,54.5442 111.014,44.1674 94.2114,41.0305 80.7794,47.3114 67.6485,53.0948 58.6484,67.0772 59.1647,81.4851 l -3.0478,-3.0647 12.9085,3.0647 c -0.1219,-3.3964 0.4303,-6.8361 1.6351,-10.0667 6.8631,-18.2154 29.9835,-23.1839 44.0185,-9.8793 5.457,5.0838 8.799,12.4104 9.028,19.946 l 0.108,3.0648 c -4.346,0 -15.081,0 -19.427,0 l 0.308,-3.0648 c 0.753,-9.8432 -11.0583,-15.0929 -18.4305,-8.6173 -2.4383,2.0696 -4.0949,5.2137 -4.3387,8.6173 -0.2653,-3.3964 0.9036,-6.9876 3.263,-9.699 4.977,-5.978 14.5436,-6.4395 20.3742,-1.0817 2.99,2.6177 4.991,6.5694 5.228,10.7879 l -3.048,-3.0647 h 12.908 l -3.047,3.0647 C 118.372,64.7985 100.996,52.5251 85.4121,58.5897 76.0391,62.0078 69.298,71.4256 69.0183,81.4923 l -12.9086,3.0648 -3.1411,0.75 0.0933,-3.8148 C 53.2842,70.553 58.0388,59.8661 65.8915,52.3881 77.3443,41.1459 95.531,37.735 110.075,44.4919 c 14.249,6.2448 24.01,21.3811 23.486,37.0004 l 12.909,-3.0647 -3.048,3.0647 C 143.45,47.0663 107.945,22.9305 76.2829,36.3937 58.5265,43.6626 46.0626,62.1376 46.249,81.4779 Z"
       fill="#e7d7c1"
       id="path20" />
  </g>
  <defs
     id="defs27">
    <clipPath
       id="clip0_1628_2">
      <rect
         width="113"
         height="92"
         fill="#ffffff"
         transform="translate(37.5,26.5)"
         id="rect24"
         x="0"
         y="0" />
    </clipPath>
  </defs>
</svg>
