<svg width="188" height="158" viewBox="0 0 188 158" fill="none" xmlns="http://www.w3.org/2000/svg">
<rect width="188" height="158" fill="#FB8B24"/>
<g clip-path="url(#clip0_1628_2)">
<path d="M41.8889 93.1864H46.4499L50.7671 117.719H46.5145L45.8906 113.587H42.3981L41.7383 117.719H37.5L41.8889 93.1864ZM45.3814 109.938L44.2053 100.657L42.9574 109.938H45.3742H45.3814Z" fill="#5F0F40"/>
<path d="M51.7354 112.087V98.8472C51.7354 95.3714 54.0517 92.9412 57.4008 92.9412C60.7498 92.9412 63.0662 95.3714 63.0662 98.8472V100.376H58.7777V98.7102C58.7777 97.2535 57.9817 97.0804 57.3936 97.0804C56.7697 97.0804 55.9737 97.2535 55.9737 98.7102V112.231C55.9737 113.724 56.7338 113.861 57.3936 113.861C58.0534 113.861 58.7777 113.724 58.7777 112.231V110.457H63.0662V112.087C63.0662 115.563 60.714 117.993 57.4008 117.993C54.0876 117.993 51.7354 115.563 51.7354 112.087Z" fill="#5F0F40"/>
<path d="M67.046 97.3545H64.1416V93.1864H74.2318V97.3545H71.3274V117.719H67.0389V97.3545H67.046Z" fill="#5F0F40"/>
<path d="M81.3892 93.1864H85.6418V117.719H81.3892V93.1864Z" fill="#5F0F40"/>
<path d="M88.5391 93.1864H92.5837L95.6603 105.38V93.1864H99.9488V117.719H95.9041L92.8276 105.907V117.719H88.5391V93.1864Z" fill="#5F0F40"/>
<path d="M108.167 93.1864H112.42L115.561 107.847L118.738 93.1864H122.991V117.719H118.738V106.044L116.909 114.279H114.213L112.413 106.116V117.719H108.16V93.1864H108.167Z" fill="#5F0F40"/>
<path d="M128.835 93.1864H133.396L137.714 117.719H133.461L132.837 113.587H129.345L128.685 117.719H124.432L128.821 93.1864H128.835ZM132.328 109.938L131.152 100.657L129.904 109.938H132.321H132.328Z" fill="#5F0F40"/>
<path d="M139.169 93.1864H144.834C148.183 93.1864 150.5 95.4795 150.5 99.6188V111.366C150.5 115.498 148.183 117.726 144.834 117.726H139.169V93.1936V93.1864ZM144.318 113.616C145.179 113.616 146.29 113.37 146.29 111.322V99.6476C146.29 97.5996 145.25 97.3184 144.318 97.3184H143.45V113.616H144.318Z" fill="#5F0F40"/>
<path d="M40.1533 80.9779C40.7414 32.079 98.6506 7.63317 133.432 42.1674C143.594 52.3063 149.575 66.5628 149.517 80.9779V84.771L146.47 84.0498L133.561 80.9851C133.332 70.8462 128.914 60.9669 121.628 54.0442C111.014 43.6673 94.2114 40.5305 80.7794 46.8114C67.6485 52.5948 58.6484 66.5772 59.1647 80.9851L56.1169 77.9204L69.0254 80.9851C68.9035 77.5886 69.4557 74.1489 70.6605 70.9183C77.5236 52.7029 100.644 47.7344 114.679 61.039C120.136 66.1229 123.478 73.4494 123.707 80.9851L123.815 84.0498C119.469 84.0498 108.734 84.0498 104.388 84.0498L104.696 80.9851C105.449 71.1419 93.6377 65.8921 86.2655 72.3678C83.8272 74.4374 82.1706 77.5814 81.9268 80.9851C81.6615 77.5886 82.8304 73.9975 85.1898 71.2861C90.1668 65.308 99.7334 64.8465 105.564 70.2044C108.554 72.8221 110.555 76.7738 110.792 80.9923L107.744 77.9276H120.652L117.605 80.9923C118.372 64.2985 100.996 52.0251 85.4121 58.0897C76.0391 61.5078 69.298 70.9255 69.0183 80.9923L56.1097 84.0571L52.9686 84.807L53.0619 80.9923C53.2842 70.053 58.0388 59.366 65.8915 51.8881C77.3443 40.6459 95.531 37.235 110.075 43.9918C124.324 50.2367 134.085 65.3729 133.561 80.9923L146.47 77.9276L143.422 80.9923C143.45 46.5662 107.945 22.4305 76.2829 35.8937C58.5265 43.1626 46.0626 61.6376 46.249 80.9779H40.1533Z" fill="#5F0F40"/>
</g>
<defs>
<clipPath id="clip0_1628_2">
<rect width="113" height="92" fill="white" transform="translate(37.5 26)"/>
</clipPath>
</defs>
</svg>
