<?xml version="1.0" encoding="UTF-8" standalone="no"?>
<svg
   width="183.76505"
   height="98.813438"
   viewBox="0 0 183.76505 98.813438"
   fill="none"
   version="1.1"
   id="svg29"
   sodipodi:docname="archActInMad.svg"
   inkscape:version="1.2.2 (b0a8486541, 2022-12-01)"
   xmlns:inkscape="http://www.inkscape.org/namespaces/inkscape"
   xmlns:sodipodi="http://sodipodi.sourceforge.net/DTD/sodipodi-0.dtd"
   xmlns="http://www.w3.org/2000/svg"
   xmlns:svg="http://www.w3.org/2000/svg">
  <sodipodi:namedview
     id="namedview31"
     pagecolor="#ffffff"
     bordercolor="#000000"
     borderopacity="0.25"
     inkscape:showpageshadow="2"
     inkscape:pageopacity="0.0"
     inkscape:pagecheckerboard="0"
     inkscape:deskcolor="#d1d1d1"
     showgrid="false"
     inkscape:zoom="4.1981686"
     inkscape:cx="196.87156"
     inkscape:cy="51.689206"
     inkscape:window-width="2021"
     inkscape:window-height="1070"
     inkscape:window-x="0"
     inkscape:window-y="0"
     inkscape:window-maximized="1"
     inkscape:current-layer="svg29" />
  <g
     clip-path="url(#clip0_1628_2)"
     id="g22"
     transform="matrix(1.9315017,0,0,1.9315017,-77.556167,-51.185274)"
     style="stroke-width:0.517731">
    <path
       d="m 40.1533,74.327911 c 0.511616,-42.539469 50.889572,-63.806028 81.14756,-33.763005 8.8404,8.820222 14.04356,21.222627 13.9931,33.763005 v 3.299798 l -2.65073,-0.62732 -11.23015,-2.666214 C 121.21386,65.513866 117.37044,56.919395 111.032,50.89701 101.79838,41.86974 87.181001,39.140802 75.495868,44.604855 64.072677,49.636108 56.243063,61.80006 56.692217,74.334175 l -2.651425,-2.666128 11.229715,2.666128 c -0.106046,-2.954689 0.374338,-5.947047 1.422451,-8.757499 5.970536,-15.846439 26.084067,-20.168773 38.293782,-8.594471 4.7473,4.422638 7.65466,10.796394 7.85388,17.35197 l 0.0939,2.666214 c -3.78079,0 -13.119671,0 -16.900462,0 l 0.267943,-2.666214 c 0.655071,-8.563066 -9.620138,-13.130029 -16.033564,-7.496598 -2.121193,1.800443 -3.562348,4.535645 -3.774441,7.496598 -0.230797,-2.954689 0.786084,-6.078844 2.838638,-8.43762 4.329728,-5.200545 12.652167,-5.602026 17.724482,-0.941022 2.601142,2.277262 4.341904,5.715033 4.548084,9.384905 l -2.651599,-2.666127 h 11.229279 l -2.65073,2.666127 C 108.19945,59.817711 93.083246,49.140499 79.526074,54.416382 71.372057,57.389949 65.507655,65.582939 65.26433,74.340438 l -11.229802,2.666215 -2.732592,0.652461 0.08117,-3.318676 c 0.19339,-9.516615 4.329641,-18.813655 11.161077,-25.319122 9.963333,-9.780122 25.784805,-12.747425 38.437317,-6.869278 12.39588,5.432647 20.88743,18.600432 20.43158,32.1884 l 11.23015,-2.666127 -2.6516,2.666127 C 130.01599,44.391631 99.12851,23.394755 71.58415,35.10703 56.137017,41.430591 45.29408,57.502868 45.456238,74.327911 Z"
       fill="#e7d7c1"
       id="path20"
       style="stroke-width:0.517729" />
  </g>
  <defs
     id="defs27">
    <clipPath
       id="clip0_1628_2">
      <rect
         width="113"
         height="92"
         fill="#ffffff"
         transform="translate(37.5,26.5)"
         id="rect24"
         x="0"
         y="0" />
    </clipPath>
  </defs>
</svg>
