<?xml version="1.0" encoding="UTF-8" standalone="no"?>
<svg
   width="113"
   height="25.0518"
   viewBox="0 0 113 25.0518"
   fill="none"
   version="1.1"
   id="svg29"
   sodipodi:docname="madRedLogo.svg"
   inkscape:version="1.2.2 (b0a8486541, 2022-12-01)"
   xmlns:inkscape="http://www.inkscape.org/namespaces/inkscape"
   xmlns:sodipodi="http://sodipodi.sourceforge.net/DTD/sodipodi-0.dtd"
   xmlns="http://www.w3.org/2000/svg"
   xmlns:svg="http://www.w3.org/2000/svg">
  <sodipodi:namedview
     id="namedview31"
     pagecolor="#ffffff"
     bordercolor="#000000"
     borderopacity="0.25"
     inkscape:showpageshadow="2"
     inkscape:pageopacity="0.0"
     inkscape:pagecheckerboard="0"
     inkscape:deskcolor="#d1d1d1"
     showgrid="false"
     inkscape:zoom="4.1981686"
     inkscape:cx="101.83012"
     inkscape:cy="-10.242562"
     inkscape:window-width="2021"
     inkscape:window-height="1070"
     inkscape:window-x="0"
     inkscape:window-y="0"
     inkscape:window-maximized="1"
     inkscape:current-layer="g22" />
  <g
     clip-path="url(#clip0_1628_2)"
     id="g22"
     transform="translate(-37.5,-93.4412)">
    <path
       d="m 41.8889,93.6864 h 4.561 l 4.3172,24.5326 h -4.2526 l -0.6239,-4.132 h -3.4925 l -0.6598,4.132 H 37.5 Z m 3.4925,16.7516 -1.1761,-9.281 -1.2479,9.281 h 2.4168 z"
       fill="#e7d7c1"
       id="path4" />
    <path
       d="M 51.7354,112.587 V 99.3472 c 0,-3.4758 2.3163,-5.906 5.6654,-5.906 3.349,0 5.6654,2.4302 5.6654,5.906 v 1.5288 h -4.2885 v -1.6658 c 0,-1.4567 -0.796,-1.6298 -1.3841,-1.6298 -0.6239,0 -1.4199,0.1731 -1.4199,1.6298 v 13.5208 c 0,1.493 0.7601,1.63 1.4199,1.63 0.6598,0 1.3841,-0.137 1.3841,-1.63 v -1.774 h 4.2885 v 1.63 c 0,3.476 -2.3522,5.906 -5.6654,5.906 -3.3132,0 -5.6654,-2.43 -5.6654,-5.906 z"
       fill="#e7d7c1"
       id="path6" />
    <path
       d="m 67.046,97.8545 h -2.9044 v -4.1681 h 10.0902 v 4.1681 H 71.3274 V 118.219 H 67.0389 V 97.8545 Z"
       fill="#e7d7c1"
       id="path8" />
    <path
       d="m 81.3892,93.6864 h 4.2526 v 24.5326 h -4.2526 z"
       fill="#e7d7c1"
       id="path10" />
    <path
       d="m 88.5391,93.6864 h 4.0446 L 95.6603,105.88 V 93.6864 h 4.2885 v 24.5326 h -4.0447 l -3.0765,-11.812 v 11.812 h -4.2885 z"
       fill="#e7d7c1"
       id="path12" />
    <path
       d="m 108.167,93.6864 h 4.253 l 3.141,14.6606 3.177,-14.6606 h 4.253 v 24.5326 h -4.253 v -11.675 l -1.829,8.235 h -2.696 l -1.8,-8.163 v 11.603 H 108.16 V 93.6864 Z"
       fill="#e7d7c1"
       id="path14" />
    <path
       d="m 128.835,93.6864 h 4.561 l 4.318,24.5326 h -4.253 l -0.624,-4.132 h -3.492 l -0.66,4.132 h -4.253 l 4.389,-24.5326 z m 3.493,16.7516 -1.176,-9.281 -1.248,9.281 h 2.417 z"
       fill="#e7d7c1"
       id="path16" />
    <path
       d="m 139.169,93.6864 h 5.665 c 3.349,0 5.666,2.2931 5.666,6.4326 v 11.747 c 0,4.132 -2.317,6.36 -5.666,6.36 h -5.665 V 93.6936 Z m 5.149,20.4296 c 0.861,0 1.972,-0.246 1.972,-2.294 v -11.674 c 0,-2.0484 -1.04,-2.3296 -1.972,-2.3296 h -0.868 v 16.2976 z"
       fill="#e7d7c1"
       id="path18" />
  </g>
  <defs
     id="defs27">
    <clipPath
       id="clip0_1628_2">
      <rect
         width="113"
         height="92"
         fill="#ffffff"
         transform="translate(37.5,26.5)"
         id="rect24"
         x="0"
         y="0" />
    </clipPath>
  </defs>
</svg>
