<svg width="158" height="127" viewBox="0 0 158 127" fill="none" xmlns="http://www.w3.org/2000/svg">
<g clip-path="url(#clip0_1729_156)">
<path d="M6.33509 92.3101H12.6951L18.7151 126.33H12.7851L11.9151 120.6H7.04509L6.12509 126.33H0.215088L6.33509 92.3101ZM11.2051 115.54L9.56509 102.67L7.82509 115.54H11.1951H11.2051Z" fill="#1D1D1B"/>
<path d="M20.0652 118.52V100.16C20.0652 95.34 23.2952 91.97 27.9652 91.97C32.6352 91.97 35.8652 95.34 35.8652 100.16V102.28H29.8852V99.97C29.8852 97.95 28.7752 97.71 27.9552 97.71C27.0852 97.71 25.9752 97.95 25.9752 99.97V118.72C25.9752 120.79 27.0352 120.98 27.9552 120.98C28.8752 120.98 29.8852 120.79 29.8852 118.72V116.26H35.8652V118.52C35.8652 123.34 32.5852 126.71 27.9652 126.71C23.3452 126.71 20.0652 123.34 20.0652 118.52Z" fill="#1D1D1B"/>
<path d="M41.415 98.0901H37.365V92.3101H51.435V98.0901H47.385V126.33H41.405V98.0901H41.415Z" fill="#1D1D1B"/>
<path d="M61.415 92.3101H67.345V126.33H61.415V92.3101Z" fill="#1D1D1B"/>
<path d="M71.385 92.3101H77.025L81.315 109.22V92.3101H87.295V126.33H81.655L77.365 109.95V126.33H71.385V92.3101Z" fill="#1D1D1B"/>
<path d="M98.7551 92.3101H104.685L109.065 112.64L113.495 92.3101H119.425V126.33H113.495V110.14L110.945 121.56H107.185L104.675 110.24V126.33H98.7451V92.3101H98.7551Z" fill="#1D1D1B"/>
<path d="M127.575 92.3101H133.935L139.955 126.33H134.025L133.155 120.6H128.285L127.365 126.33H121.435L127.555 92.3101H127.575ZM132.445 115.54L130.805 102.67L129.065 115.54H132.435H132.445Z" fill="#1D1D1B"/>
<path d="M141.985 92.3101H149.885C154.555 92.3101 157.785 95.4901 157.785 101.23V117.52C157.785 123.25 154.555 126.34 149.885 126.34H141.985V92.3201V92.3101ZM149.165 120.65C150.365 120.65 151.915 120.31 151.915 117.47V101.28C151.915 98.4401 150.465 98.0501 149.165 98.0501H147.955V120.65H149.165Z" fill="#1D1D1B"/>
<path d="M2.9751 76.52C3.8051 8.71004 84.5551 -25.19 133.045 22.7C147.215 36.76 155.555 56.53 155.475 76.52V81.78L151.225 80.78L133.225 76.53C132.905 62.47 126.745 48.77 116.585 39.17C101.785 24.78 78.3551 20.43 59.6251 29.14C41.3151 37.16 28.7651 56.55 29.4851 76.53L25.2351 72.28L43.2351 76.53C43.0651 71.82 43.8351 67.05 45.5151 62.57C55.0851 37.31 87.3251 30.42 106.895 48.87C114.505 55.92 119.165 66.08 119.485 76.53L119.635 80.78C113.575 80.78 98.6051 80.78 92.5451 80.78L92.9751 76.53C94.0251 62.88 77.5551 55.6 67.2751 64.58C63.8751 67.45 61.5651 71.81 61.2251 76.53C60.8551 71.82 62.4851 66.84 65.7751 63.08C72.7151 54.79 86.0551 54.15 94.1851 61.58C98.3551 65.21 101.145 70.69 101.475 76.54L97.2251 72.29H115.225L110.975 76.54C112.045 53.39 87.8151 36.37 66.0851 44.78C53.0151 49.52 43.6151 62.58 43.2251 76.54L25.2251 80.79L20.8451 81.83L20.9751 76.54C21.2851 61.37 27.9151 46.55 38.8651 36.18C54.8351 20.59 80.1951 15.86 100.475 25.23C120.335 33.89 133.955 54.88 133.225 76.54L151.225 72.29L146.975 76.54C147.015 28.8 97.5051 -4.66996 53.3551 14C28.5951 24.08 11.2151 49.7 11.4851 76.52H2.9851H2.9751Z" fill="#1D1D1B"/>
</g>
<defs>
<clipPath id="clip0_1729_156">
<rect width="157.57" height="126.44" fill="white" transform="translate(0.215088 0.280029)"/>
</clipPath>
</defs>
</svg>
